<svg xmlns="http://www.w3.org/2000/svg" viewBox="0 0 1024 1024" role="img" aria-labelledby="title desc">
  <title id="title">Token Ledger App Icon</title>
  <desc id="desc">A flat teal ledger with a token counter and code brackets.</desc>
  <defs>
    <linearGradient id="bg" x1="160" x2="864" y1="96" y2="928" gradientUnits="userSpaceOnUse">
      <stop offset="0" stop-color="#0f766e"/>
      <stop offset="1" stop-color="#12345a"/>
    </linearGradient>
  </defs>

  <rect width="1024" height="1024" rx="224" fill="url(#bg)"/>
  <path fill="#0b2239" opacity=".18" d="M192 768h640v64H192z"/>

  <g transform="translate(180 156)">
    <rect width="520" height="680" rx="56" fill="#f8fafc"/>
    <rect x="38" y="38" width="444" height="604" rx="32" fill="#ffffff" stroke="#d8e2ec" stroke-width="18"/>
    <path fill="#0f766e" d="M0 80c0-44 36-80 80-80h62v680H80c-44 0-80-36-80-80V80Z"/>
    <path fill="#0a4f4b" d="M64 86h62v88H64zM64 236h62v88H64zM64 386h62v88H64zM64 536h62v88H64z"/>

    <g fill="none" stroke-linecap="round" stroke-width="22">
      <path stroke="#cbd5e1" d="M220 170h198M220 284h198M220 398h198M220 512h142"/>
      <path stroke="#0f766e" d="M220 216h146M220 330h174M220 444h132"/>
    </g>

    <g fill="#0f766e">
      <rect x="162" y="164" width="38" height="38" rx="10"/>
      <rect x="162" y="278" width="38" height="38" rx="10"/>
      <rect x="162" y="392" width="38" height="38" rx="10"/>
      <rect x="162" y="506" width="38" height="38" rx="10"/>
    </g>
  </g>

  <g transform="translate(538 520)">
    <circle cx="188" cy="188" r="188" fill="#0f172a"/>
    <circle cx="188" cy="188" r="156" fill="#ffffff"/>
    <circle cx="188" cy="188" r="132" fill="#eff6ff" stroke="#38bdf8" stroke-width="18"/>

    <g fill="none" stroke-linecap="round" stroke-linejoin="round" stroke-width="32">
      <path stroke="#0f766e" d="M146 132l-52 56 52 56"/>
      <path stroke="#0f766e" d="M230 132l52 56-52 56"/>
      <path stroke="#2563eb" d="M168 262l-28 56"/>
      <path stroke="#2563eb" d="M208 262l28 56"/>
    </g>

    <rect x="116" y="206" width="144" height="48" rx="12" fill="#0f172a"/>
    <rect x="134" y="216" width="24" height="28" rx="6" fill="#f8fafc"/>
    <rect x="176" y="216" width="24" height="28" rx="6" fill="#f8fafc"/>
    <rect x="218" y="216" width="24" height="28" rx="6" fill="#f8fafc"/>
  </g>
</svg>
